<svg width="20" height="20" viewBox="0 0 20 20" fill="none" xmlns="http://www.w3.org/2000/svg">
<path d="M9.99999 18.9584C5.05832 18.9584 1.04166 14.9417 1.04166 10C1.04166 5.05835 5.05832 1.04169 9.99999 1.04169C14.9417 1.04169 18.9583 5.05835 18.9583 10C18.9583 14.9417 14.9417 18.9584 9.99999 18.9584ZM9.99999 2.29169C5.74999 2.29169 2.29166 5.75002 2.29166 10C2.29166 14.25 5.74999 17.7084 9.99999 17.7084C14.25 17.7084 17.7083 14.25 17.7083 10C17.7083 5.75002 14.25 2.29169 9.99999 2.29169Z" fill="#1D1D1D"/>
<path d="M13.3333 10.625H6.66666C6.32499 10.625 6.04166 10.3417 6.04166 10C6.04166 9.65833 6.32499 9.375 6.66666 9.375H13.3333C13.675 9.375 13.9583 9.65833 13.9583 10C13.9583 10.3417 13.675 10.625 13.3333 10.625Z" fill="#1D1D1D"/>
<path d="M10 13.9584C9.65833 13.9584 9.375 13.675 9.375 13.3334V6.66669C9.375 6.32502 9.65833 6.04169 10 6.04169C10.3417 6.04169 10.625 6.32502 10.625 6.66669V13.3334C10.625 13.675 10.3417 13.9584 10 13.9584Z" fill="#1D1D1D"/>
</svg>
