<svg width="24" height="24" viewBox="0 0 24 24" fill="none" xmlns="http://www.w3.org/2000/svg">
<path d="M14.9999 20.67C14.8099 20.67 14.6199 20.6 14.4699 20.45L7.94987 13.93C7.44057 13.4168 7.15479 12.7231 7.15479 12C7.15479 11.277 7.44057 10.5832 7.94987 10.07L14.4699 3.55002C14.7599 3.26002 15.2399 3.26002 15.5299 3.55002C15.8199 3.84002 15.8199 4.32002 15.5299 4.61002L9.00987 11.13C8.52987 11.61 8.52987 12.39 9.00987 12.87L15.5299 19.39C15.8199 19.68 15.8199 20.16 15.5299 20.45C15.3799 20.59 15.1899 20.67 14.9999 20.67Z" fill="#575757"/>
</svg>
