<svg width="20" height="20" viewBox="0 0 20 20" fill="none" xmlns="http://www.w3.org/2000/svg">
<path d="M19.1667 15C19.1667 15.625 18.9917 16.2167 18.6833 16.7167C18.5083 17.0167 18.2833 17.2833 18.025 17.5C17.4417 18.025 16.675 18.3333 15.8333 18.3333C14.8167 18.3333 13.9083 17.875 13.3083 17.1583C13.2917 17.1333 13.2667 17.1167 13.25 17.0917C13.15 16.975 13.0583 16.85 12.9833 16.7167C12.675 16.2167 12.5 15.625 12.5 15C12.5 13.95 12.9833 13.0083 13.75 12.4C14.325 11.9417 15.05 11.6667 15.8333 11.6667C16.6667 11.6667 17.4167 11.9666 18 12.475C18.1 12.55 18.1917 12.6417 18.275 12.7333C18.825 13.3333 19.1667 14.125 19.1667 15Z" stroke="#575757" stroke-width="1.2" stroke-miterlimit="10" stroke-linecap="round" stroke-linejoin="round"/>
<path d="M17.0751 14.9833H14.5918" stroke="#575757" stroke-width="1.2" stroke-miterlimit="10" stroke-linecap="round" stroke-linejoin="round"/>
<path d="M15.8335 13.7667V16.2584" stroke="#575757" stroke-width="1.2" stroke-miterlimit="10" stroke-linecap="round" stroke-linejoin="round"/>
<path d="M2.6416 6.19998L9.99994 10.4583L17.3083 6.22496" stroke="#575757" stroke-width="1.2" stroke-linecap="round" stroke-linejoin="round"/>
<path d="M10 18.0083V10.45" stroke="#575757" stroke-width="1.2" stroke-linecap="round" stroke-linejoin="round"/>
<path d="M18.0084 7.64166V12.3584C18.0084 12.4 18.0084 12.4333 18 12.475C17.4167 11.9666 16.6667 11.6667 15.8334 11.6667C15.05 11.6667 14.325 11.9417 13.75 12.4C12.9834 13.0083 12.5 13.95 12.5 15C12.5 15.625 12.675 16.2167 12.9834 16.7167C13.0584 16.85 13.15 16.975 13.25 17.0917L11.725 17.9334C10.775 18.4667 9.22503 18.4667 8.27503 17.9334L3.82503 15.4667C2.8167 14.9083 1.9917 13.5084 1.9917 12.3584V7.64166C1.9917 6.49166 2.8167 5.09167 3.82503 4.53334L8.27503 2.06666C9.22503 1.53332 10.775 1.53332 11.725 2.06666L16.175 4.53334C17.1834 5.09167 18.0084 6.49166 18.0084 7.64166Z" stroke="#575757" stroke-width="1.2" stroke-linecap="round" stroke-linejoin="round"/>
</svg>
