<svg width="20" height="20" viewBox="0 0 20 20" fill="none" xmlns="http://www.w3.org/2000/svg">
<path d="M10.0008 11.0833C9.8925 11.0833 9.78416 11.0583 9.68416 11L2.32583 6.74167C2.25462 6.70015 2.1923 6.645 2.14244 6.57937C2.09258 6.51374 2.05615 6.43891 2.03525 6.35918C2.01435 6.27945 2.00939 6.19638 2.02064 6.11472C2.03189 6.03307 2.05914 5.95444 2.10083 5.88333C2.14218 5.81196 2.19725 5.74948 2.26287 5.69949C2.32848 5.6495 2.40335 5.613 2.48314 5.59208C2.56293 5.57117 2.64607 5.56625 2.72777 5.57762C2.80947 5.58899 2.88811 5.61642 2.95916 5.65833L10.0008 9.73333L17.0008 5.68333C17.1449 5.60091 17.3155 5.57831 17.476 5.62039C17.6365 5.66247 17.7741 5.76586 17.8592 5.90833C18.0342 6.20833 17.9258 6.59167 17.6342 6.76667L10.3258 11C10.2248 11.0509 10.1139 11.0794 10.0008 11.0833Z" fill="#1D1D1D"/>
<path d="M10 18.6333C9.65833 18.6333 9.375 18.35 9.375 18.0083V10.45C9.375 10.1083 9.65833 9.82501 10 9.82501C10.3417 9.82501 10.625 10.1083 10.625 10.45V18.0083C10.625 18.35 10.3417 18.6333 10 18.6333Z" fill="#1D1D1D"/>
<path d="M10 18.9584C9.26667 18.9584 8.54167 18.8 7.96667 18.4834L3.51667 16.0084C2.30834 15.3417 1.36667 13.7334 1.36667 12.35V7.64169C1.36667 6.25835 2.30834 4.65835 3.51667 3.98335L7.96667 1.51669C9.10834 0.883354 10.8917 0.883354 12.0333 1.51669L16.4833 3.99169C17.6917 4.65835 18.6333 6.26669 18.6333 7.65002V12.3584C18.6333 13.7417 17.6917 15.3417 16.4833 16.0167L12.0333 18.4834C11.4583 18.8 10.7333 18.9584 10 18.9584ZM10 2.29169C9.475 2.29169 8.95834 2.40002 8.575 2.60835L4.125 5.08335C3.325 5.53335 2.61667 6.72502 2.61667 7.65002V12.3584C2.61667 13.275 3.325 14.475 4.125 14.925L8.575 17.4C9.33334 17.825 10.6667 17.825 11.425 17.4L15.875 14.925C16.675 14.475 17.3833 13.2834 17.3833 12.3584V7.65002C17.3833 6.73335 16.675 5.53335 15.875 5.08335L11.425 2.60835C11.0417 2.40002 10.525 2.29169 10 2.29169Z" fill="#1D1D1D"/>
<path d="M14.1675 11.6583C13.8258 11.6583 13.5425 11.375 13.5425 11.0333V8.35001L5.94249 3.96668C5.87157 3.92596 5.80943 3.87159 5.75967 3.8067C5.7099 3.74181 5.6735 3.66769 5.65258 3.58864C5.63165 3.50959 5.62661 3.42717 5.63776 3.34615C5.6489 3.26514 5.676 3.18714 5.71749 3.11668C5.75804 3.04559 5.81234 2.98328 5.87721 2.93339C5.94208 2.8835 6.01623 2.84702 6.09535 2.82607C6.17446 2.80513 6.25696 2.80015 6.33802 2.81141C6.41908 2.82267 6.49709 2.84996 6.56749 2.89168L14.4758 7.45834C14.6675 7.56668 14.7925 7.77501 14.7925 8.00001V11.05C14.7925 11.375 14.5092 11.6583 14.1675 11.6583Z" fill="#1D1D1D"/>
</svg>
