<svg width="32" height="32" viewBox="0 0 32 32" fill="none" xmlns="http://www.w3.org/2000/svg">
<path d="M19.1333 2.66666H12.8667C11.48 2.66666 10.3467 3.78666 10.3467 5.17332V6.42666C10.3467 7.81332 11.4667 8.93332 12.8533 8.93332H19.1333C20.52 8.93332 21.64 7.81332 21.64 6.42666V5.17332C21.6533 3.78666 20.52 2.66666 19.1333 2.66666Z" fill="#FF5151" fill-opacity="0.7"/>
<path d="M22.9867 6.42667C22.9867 8.54667 21.2534 10.28 19.1334 10.28H12.8667C10.7467 10.28 9.01339 8.54667 9.01339 6.42667C9.01339 5.68 8.21339 5.21334 7.54672 5.56C5.66672 6.56 4.38672 8.54667 4.38672 10.8267V23.3733C4.38672 26.6533 7.06672 29.3333 10.3467 29.3333H21.6534C24.9334 29.3333 27.6134 26.6533 27.6134 23.3733V10.8267C27.6134 8.54667 26.3334 6.56 24.4534 5.56C23.7867 5.21334 22.9867 5.68 22.9867 6.42667ZM19.3734 22.2533C19.1734 22.4533 18.9201 22.5467 18.6667 22.5467C18.4134 22.5467 18.1601 22.4533 17.9601 22.2533L16.0267 20.32L14.0401 22.3067C13.8401 22.5067 13.5867 22.6 13.3334 22.6C13.0801 22.6 12.8267 22.5067 12.6267 22.3067C12.2401 21.92 12.2401 21.28 12.6267 20.8933L14.6134 18.9067L12.6801 16.9733C12.2934 16.5867 12.2934 15.9467 12.6801 15.56C13.0667 15.1733 13.7067 15.1733 14.0934 15.56L16.0267 17.4933L17.8934 15.6267C18.2801 15.24 18.9201 15.24 19.3067 15.6267C19.6934 16.0133 19.6934 16.6533 19.3067 17.04L17.4401 18.9067L19.3734 20.84C19.7601 21.2267 19.7601 21.8533 19.3734 22.2533Z" fill="#FF5151" fill-opacity="0.7"/>
</svg>
