<svg width="32" height="32" viewBox="0 0 32 32" fill="none" xmlns="http://www.w3.org/2000/svg">
<path d="M15.9998 2.66666C8.65317 2.66666 2.6665 8.65332 2.6665 16C2.6665 23.3467 8.65317 29.3333 15.9998 29.3333C23.3465 29.3333 29.3332 23.3467 29.3332 16C29.3332 8.65332 23.3465 2.66666 15.9998 2.66666ZM21.7998 20.76C21.6132 21.08 21.2798 21.2533 20.9332 21.2533C20.7598 21.2533 20.5865 21.2133 20.4265 21.1067L16.2932 18.64C15.2665 18.0267 14.5065 16.68 14.5065 15.4933V10.0267C14.5065 9.47999 14.9598 9.02666 15.5065 9.02666C16.0532 9.02666 16.5065 9.47999 16.5065 10.0267V15.4933C16.5065 15.9733 16.9065 16.68 17.3198 16.92L21.4532 19.3867C21.9332 19.6667 22.0932 20.28 21.7998 20.76Z" fill="#4685FF" fill-opacity="0.7"/>
</svg>
