<svg width="28" height="28" viewBox="0 0 28 28" fill="none" xmlns="http://www.w3.org/2000/svg">
<path d="M9.67163 7.33837C9.18163 7.33837 8.79663 6.94171 8.79663 6.46337V3.20837C8.79663 2.73004 9.18163 2.33337 9.67163 2.33337C10.1616 2.33337 10.5466 2.73004 10.5466 3.20837V6.45171C10.5466 6.94171 10.1616 7.33837 9.67163 7.33837Z" fill="black"/>
<path d="M18.3284 7.33837C17.8384 7.33837 17.4534 6.94171 17.4534 6.46337V3.20837C17.4534 2.71837 17.85 2.33337 18.3284 2.33337C18.8184 2.33337 19.2034 2.73004 19.2034 3.20837V6.45171C19.2034 6.94171 18.8184 7.33837 18.3284 7.33837Z" fill="black"/>
<path d="M25.0834 18.4566C25.0834 18.6316 25.0251 18.8066 24.8734 18.9583C23.1818 20.6616 20.1718 23.695 18.4451 25.4333C18.2934 25.5966 18.0951 25.6666 17.8968 25.6666C17.5118 25.6666 17.1384 25.3633 17.1384 24.92V20.8366C17.1384 19.1333 18.5851 17.7216 20.3584 17.7216C21.4668 17.71 23.0068 17.71 24.3251 17.71C24.7801 17.71 25.0834 18.0716 25.0834 18.4566Z" fill="black"/>
<path d="M25.0834 18.4566C25.0834 18.6316 25.0251 18.8066 24.8734 18.9583C23.1818 20.6616 20.1718 23.695 18.4451 25.4333C18.2934 25.5966 18.0951 25.6666 17.8968 25.6666C17.5118 25.6666 17.1384 25.3633 17.1384 24.92V20.8366C17.1384 19.1333 18.5851 17.7216 20.3584 17.7216C21.4668 17.71 23.0068 17.71 24.3251 17.71C24.7801 17.71 25.0834 18.0716 25.0834 18.4566Z" fill="black"/>
<path d="M22.8317 5.25004C22.0617 4.67837 20.9534 5.22671 20.9534 6.19504V6.31171C20.9534 7.67671 19.9734 8.93671 18.6084 9.07671C17.0334 9.24004 15.7034 8.00337 15.7034 6.46337V5.25004C15.7034 4.60837 15.1784 4.08337 14.5367 4.08337H13.4634C12.8217 4.08337 12.2967 4.60837 12.2967 5.25004V6.31171C12.2967 7.33837 11.7484 8.29504 10.8967 8.76171C10.8501 8.79671 10.8034 8.82004 10.7567 8.84337C10.7451 8.84337 10.7451 8.85504 10.7334 8.85504C10.6517 8.89004 10.5701 8.92504 10.4767 8.96004C10.4534 8.97171 10.4301 8.97171 10.4067 8.98337C10.2667 9.03004 10.1151 9.06504 9.95175 9.07671H9.94008C9.76508 9.10004 9.57842 9.10004 9.40342 9.07671H9.39175C9.22842 9.06504 9.07675 9.03004 8.93675 8.98337C8.82008 8.94837 8.70342 8.90171 8.58675 8.84337C7.67675 8.43504 7.04675 7.52504 7.04675 6.46337V6.19504C7.04675 5.29671 6.09008 4.76004 5.33175 5.14504C5.32008 5.15671 5.30841 5.15671 5.29675 5.16837H5.28508C5.20342 5.22671 5.13341 5.28504 5.05175 5.34337C4.92341 5.44837 4.79508 5.55337 4.67842 5.67004C4.59675 5.75171 4.51508 5.83337 4.44508 5.91504C4.35175 6.00837 4.27008 6.10171 4.18841 6.20671C4.13008 6.27671 4.06008 6.34671 4.01341 6.42837C3.95508 6.49837 3.90841 6.58004 3.86175 6.65004C3.85008 6.66171 3.83841 6.67337 3.82675 6.69671C3.72175 6.84837 3.62841 7.02337 3.54675 7.18671C3.52341 7.21004 3.51175 7.22171 3.51175 7.24504C3.44175 7.38504 3.37175 7.52504 3.32508 7.67671C3.29008 7.73504 3.27841 7.78171 3.25508 7.84004C3.23175 7.88671 3.22008 7.94504 3.19675 7.99171C3.16175 8.10837 3.12675 8.23671 3.09175 8.36504C3.04508 8.52837 3.01008 8.70337 2.98675 8.87837C2.96341 9.00671 2.95175 9.13504 2.94008 9.27504C2.92841 9.43837 2.91675 9.60171 2.91675 9.76504V19.985C2.91675 23.1234 5.46008 25.6667 8.59841 25.6667H14.2217C14.8634 25.6667 15.3884 25.1417 15.3884 24.5V20.8367C15.3884 18.1534 17.6168 15.9717 20.3584 15.9717C20.9768 15.96 22.4817 15.96 23.9167 15.96C24.5584 15.96 25.0834 15.435 25.0834 14.7934V9.76504C25.0834 7.91004 24.1967 6.28837 22.8317 5.25004ZM12.9851 18.5617C12.8801 18.9117 12.5534 19.1567 12.1684 19.1567H7.92175C7.86342 19.1567 7.81675 19.1567 7.77008 19.1334C7.35008 19.075 7.04675 18.7134 7.04675 18.2817C7.04675 17.7917 7.43175 17.395 7.92175 17.395H12.1684C12.6467 17.395 13.0434 17.7917 13.0434 18.2817C13.0434 18.375 13.0317 18.48 12.9851 18.5617ZM16.2284 14.2334C16.1234 14.5834 15.7967 14.8284 15.4117 14.8284H7.92175C7.86342 14.8284 7.81675 14.8284 7.77008 14.805C7.35008 14.7467 7.04675 14.385 7.04675 13.9534C7.04675 13.4634 7.43175 13.0667 7.92175 13.0667H15.4117C15.9017 13.0667 16.2867 13.4634 16.2867 13.9534C16.2867 14.0467 16.2751 14.1517 16.2284 14.2334Z" fill="black"/>
</svg>
