<svg width="16" height="19" viewBox="0 0 16 19" fill="none" xmlns="http://www.w3.org/2000/svg">
<path d="M7.99986 0C4.13822 0 0.916051 4.50658 0.1649 8.89982C0.585699 9.2993 1.00677 9.69879 1.42757 10.0983C2.39215 9.5046 3.35646 8.91121 4.32105 8.31753C4.60259 8.14418 4.91722 8.23419 5.15658 8.42616C5.2939 8.53617 5.43123 8.64646 5.56883 8.75647C6.37926 9.40598 7.1897 10.0552 8.00014 10.7047C8.9479 9.9452 9.89566 9.18568 10.8434 8.42616C11.0701 8.24447 11.4106 8.12501 11.679 8.31753C12.113 8.62923 12.547 8.94065 12.9811 9.25235C13.2954 9.47821 13.4162 9.84464 13.2284 10.2025C13.0652 10.5136 12.5798 10.6631 12.2853 10.4516C11.9743 10.2283 11.6635 10.0052 11.3525 9.78185C10.3975 10.5469 9.4426 11.3123 8.48794 12.0774C8.33683 12.1985 8.19454 12.2721 8.00041 12.2807C7.80849 12.2893 7.6549 12.191 7.51288 12.0774C7.37556 11.9674 7.23823 11.8571 7.10063 11.7471C6.2742 11.0848 5.44777 10.4225 4.62134 9.76046C4.615 9.76435 4.60866 9.76824 4.60231 9.77213C3.63029 10.3702 2.65826 10.9686 1.6865 11.5668C1.42095 11.7304 1.07075 11.6668 0.850973 11.4581C0.712269 11.3267 0.573841 11.1951 0.435138 11.0637C0.290368 10.9261 0.145597 10.7889 0.000827258 10.6514C0.000275753 10.6942 0 10.737 0 10.7797C0 15.6591 3.58175 18.67 8.00014 18.67C12.4185 18.67 16.0003 15.6591 16.0003 10.7797C16.0003 5.90034 12.418 0 7.99986 0Z" fill="#1D1D1D"/>
</svg>
