<svg width="18" height="21" viewBox="0 0 18 21" fill="none" xmlns="http://www.w3.org/2000/svg">
<path d="M2.42828 11.0223C3.39294 10.4329 4.35733 9.84388 5.322 9.25454C5.60357 9.08246 5.91823 9.17181 6.1576 9.36237C6.29494 9.47158 6.43228 9.58106 6.56989 9.69027C7.38039 10.335 8.1909 10.9795 9.00141 11.6243C9.94925 10.8703 10.8971 10.1163 11.8449 9.36237C12.0716 9.18201 12.4122 9.06343 12.6805 9.25454C12.8179 9.35244 12.9552 9.45007 13.0923 9.54797C13.9204 10.1381 14.7483 10.7283 15.5765 11.3185C15.5801 11.3149 15.5836 11.311 15.587 11.3074C16.0114 10.8642 16.4361 10.4214 16.8605 9.97818C16.1559 5.5721 12.905 1 9.00113 1C5.09724 1 1.91754 5.47254 1.16577 9.83312C1.58661 10.2294 2.00772 10.626 2.42828 11.0223Z" fill="black"/>
</svg>
