<svg width="18" height="21" viewBox="0 0 18 21" fill="none" xmlns="http://www.w3.org/2000/svg">
<path d="M16.1509 12.7111C15.9534 12.9171 15.5571 12.991 15.3153 12.8189C15.1779 12.721 15.0406 12.6234 14.9035 12.5255C14.0536 11.9196 13.2034 11.314 12.3534 10.7081C11.3984 11.4676 10.4434 12.2274 9.48868 12.9869C9.33755 13.1071 9.19525 13.1802 9.0011 13.1887C8.80916 13.1973 8.65556 13.0997 8.51353 12.9869L8.10124 12.659L5.62174 10.6869C5.6154 10.6908 5.60905 10.6946 5.60271 10.6985L2.68665 12.48C2.42108 12.6424 2.07084 12.5793 1.85105 12.3722C1.71233 12.2417 1.57389 12.111 1.43518 11.9806C1.29039 11.8443 1.14561 11.7078 1.00083 11.5716C1.00028 11.6149 1 11.6579 1 11.7009C1 16.5447 4.58206 19.5335 9.00083 19.5335C13.4196 19.5335 16.9396 16.5951 17 11.8245C16.7168 12.1201 16.4336 12.4157 16.1506 12.7111H16.1509Z" fill="black"/>
</svg>
