<svg width="26" height="31" viewBox="0 0 26 31" fill="none" xmlns="http://www.w3.org/2000/svg">
<g filter="url(#filter0_d_1448_1611)">
<path d="M13.0201 2.91003C9.71009 2.91003 7.02009 5.60003 7.02009 8.91003V11.8C7.02009 12.41 6.76009 13.34 6.45009 13.86L5.30009 15.77C4.59009 16.95 5.08009 18.26 6.38009 18.7C10.6901 20.14 15.3401 20.14 19.6501 18.7C20.8601 18.3 21.3901 16.87 20.7301 15.77L19.5801 13.86C19.2801 13.34 19.0201 12.41 19.0201 11.8V8.91003C19.0201 5.61003 16.3201 2.91003 13.0201 2.91003Z" stroke="#292D32" stroke-width="1.5" stroke-miterlimit="10" stroke-linecap="round"/>
<path d="M14.8699 3.19994C14.5599 3.10994 14.2399 3.03994 13.9099 2.99994C12.9499 2.87994 12.0299 2.94994 11.1699 3.19994C11.4599 2.45994 12.1799 1.93994 13.0199 1.93994C13.8599 1.93994 14.5799 2.45994 14.8699 3.19994Z" stroke="#292D32" stroke-width="1.5" stroke-miterlimit="10" stroke-linecap="round" stroke-linejoin="round"/>
<path d="M16.02 19.0601C16.02 20.7101 14.67 22.0601 13.02 22.0601C12.2 22.0601 11.44 21.7201 10.9 21.1801C10.36 20.6401 10.02 19.8801 10.02 19.0601" stroke="#292D32" stroke-width="1.5" stroke-miterlimit="10"/>
</g>
<defs>
<filter id="filter0_d_1448_1611" x="-3" y="0" width="32" height="32" filterUnits="userSpaceOnUse" color-interpolation-filters="sRGB">
<feFlood flood-opacity="0" result="BackgroundImageFix"/>
<feColorMatrix in="SourceAlpha" type="matrix" values="0 0 0 0 0 0 0 0 0 0 0 0 0 0 0 0 0 0 127 0" result="hardAlpha"/>
<feOffset dy="4"/>
<feGaussianBlur stdDeviation="2"/>
<feComposite in2="hardAlpha" operator="out"/>
<feColorMatrix type="matrix" values="0 0 0 0 0 0 0 0 0 0 0 0 0 0 0 0 0 0 0.25 0"/>
<feBlend mode="normal" in2="BackgroundImageFix" result="effect1_dropShadow_1448_1611"/>
<feBlend mode="normal" in="SourceGraphic" in2="effect1_dropShadow_1448_1611" result="shape"/>
</filter>
</defs>
</svg>
