<svg width="24" height="24" viewBox="0 0 24 24" fill="none" xmlns="http://www.w3.org/2000/svg">
<path d="M12.0199 20.532C9.68987 20.532 7.35987 20.162 5.14987 19.422C4.30987 19.132 3.66987 18.542 3.38987 17.772C3.09987 17.002 3.19987 16.152 3.65987 15.392L4.80987 13.482C5.04987 13.082 5.26987 12.282 5.26987 11.812V8.922C5.26987 5.202 8.29987 2.172 12.0199 2.172C15.7399 2.172 18.7699 5.202 18.7699 8.922V11.812C18.7699 12.272 18.9899 13.082 19.2299 13.492L20.3699 15.392C20.7999 16.112 20.8799 16.982 20.5899 17.772C20.4483 18.1585 20.2208 18.5078 19.9246 18.7936C19.6284 19.0794 19.2712 19.2943 18.8799 19.422C16.6799 20.162 14.3499 20.532 12.0199 20.532ZM12.0199 3.672C9.12987 3.672 6.76987 6.022 6.76987 8.922V11.812C6.76987 12.542 6.46987 13.622 6.09987 14.252L4.94987 16.162C4.72987 16.532 4.66987 16.922 4.79987 17.252C4.91987 17.592 5.21987 17.852 5.62987 17.992C9.77828 19.3919 14.2715 19.3919 18.4199 17.992C18.7799 17.872 19.0599 17.602 19.1899 17.242C19.3199 16.882 19.2899 16.492 19.0899 16.162L17.9399 14.252C17.5599 13.602 17.2699 12.532 17.2699 11.802V8.922C17.2699 6.022 14.9199 3.672 12.0199 3.672Z" fill="#575757"/>
<path d="M13.8795 3.94001C13.8095 3.94001 13.7395 3.93001 13.6695 3.91001C13.3795 3.83001 13.0995 3.77001 12.8295 3.73001C11.9795 3.62001 11.1595 3.68001 10.3895 3.91001C10.1095 4.00001 9.80953 3.91001 9.61953 3.70001C9.52486 3.59652 9.46146 3.46832 9.43668 3.33027C9.4119 3.19221 9.42676 3.04996 9.47953 2.92001C9.67863 2.40605 10.029 1.96458 10.4843 1.65391C10.9395 1.34324 11.4784 1.178 12.0295 1.18001C13.1695 1.18001 14.1695 1.86001 14.5795 2.92001C14.6795 3.19001 14.6295 3.49001 14.4395 3.70001C14.2895 3.86001 14.0795 3.94001 13.8795 3.94001ZM12.0195 22.809C11.0295 22.809 10.0695 22.409 9.36953 21.709C8.66953 21.009 8.26953 20.049 8.26953 19.059H9.76953C9.76953 19.649 10.0095 20.229 10.4295 20.649C10.8495 21.069 11.4295 21.309 12.0195 21.309C13.2595 21.309 14.2695 20.299 14.2695 19.059H15.7695C15.7695 21.129 14.0895 22.809 12.0195 22.809Z" fill="#575757"/>
</svg>
