<svg width="26" height="27" viewBox="0 0 26 27" fill="none" xmlns="http://www.w3.org/2000/svg">
<g filter="url(#filter0_d_715_225)">
<path d="M8.83332 7.29169H6.33332C5.06666 7.29169 4.04166 6.26669 4.04166 5.00002V3.33335C4.04166 2.06669 5.06666 1.04169 6.33332 1.04169H8.83332C10.1 1.04169 11.125 2.06669 11.125 3.33335V5.00002C11.125 6.26669 10.1 7.29169 8.83332 7.29169ZM6.33332 2.29169C5.75832 2.29169 5.29166 2.75835 5.29166 3.33335V5.00002C5.29166 5.57502 5.75832 6.04169 6.33332 6.04169H8.83332C9.40832 6.04169 9.87499 5.57502 9.87499 5.00002V3.33335C9.87499 2.75835 9.40832 2.29169 8.83332 2.29169H6.33332ZM20.3333 6.45835H17.3333C16.4333 6.45835 15.7083 5.72502 15.7083 4.83335V3.50002C15.7083 2.60002 16.4417 1.87502 17.3333 1.87502H20.3333C21.2333 1.87502 21.9583 2.60835 21.9583 3.50002V4.83335C21.9583 5.73335 21.2333 6.45835 20.3333 6.45835ZM17.3333 3.12502C17.1333 3.12502 16.9583 3.30002 16.9583 3.50002V4.83335C16.9583 5.03335 17.1333 5.20835 17.3333 5.20835H20.3333C20.5333 5.20835 20.7083 5.03335 20.7083 4.83335V3.50002C20.7083 3.30002 20.5333 3.12502 20.3333 3.12502H17.3333ZM20.3333 12.7084H17.3333C16.4333 12.7084 15.7083 11.975 15.7083 11.0834V9.75002C15.7083 8.85002 16.4417 8.12502 17.3333 8.12502H20.3333C21.2333 8.12502 21.9583 8.85835 21.9583 9.75002V11.0834C21.9583 11.9834 21.2333 12.7084 20.3333 12.7084ZM17.3333 9.37502C17.1333 9.37502 16.9583 9.55002 16.9583 9.75002V11.0834C16.9583 11.2834 17.1333 11.4584 17.3333 11.4584H20.3333C20.5333 11.4584 20.7083 11.2834 20.7083 11.0834V9.75002C20.7083 9.55002 20.5333 9.37502 20.3333 9.37502H17.3333Z" fill="#1D1D1D"/>
<path d="M16.3333 4.79169H10.5C10.1583 4.79169 9.875 4.50835 9.875 4.16669C9.875 3.82502 10.1583 3.54169 10.5 3.54169H16.3333C16.675 3.54169 16.9583 3.82502 16.9583 4.16669C16.9583 4.50835 16.675 4.79169 16.3333 4.79169Z" fill="#1D1D1D"/>
<path d="M13.4167 4.16669V15C13.4167 15.9167 14.1667 16.6667 15.0833 16.6667H16.3333" fill="white"/>
<path d="M16.3333 17.2917H15.0833C13.8167 17.2917 12.7917 16.2667 12.7917 15V4.16669C12.7917 3.82502 13.075 3.54169 13.4167 3.54169C13.7583 3.54169 14.0417 3.82502 14.0417 4.16669V15C14.0417 15.575 14.5083 16.0417 15.0833 16.0417H16.3333C16.675 16.0417 16.9583 16.325 16.9583 16.6667C16.9583 17.0084 16.675 17.2917 16.3333 17.2917Z" fill="#1D1D1D"/>
<path d="M16.3333 11.0417H13.4167C13.075 11.0417 12.7917 10.7584 12.7917 10.4167C12.7917 10.075 13.075 9.79169 13.4167 9.79169H16.3333C16.675 9.79169 16.9583 10.075 16.9583 10.4167C16.9583 10.7584 16.675 11.0417 16.3333 11.0417ZM20.3333 18.9584H17.3333C16.4333 18.9584 15.7083 18.225 15.7083 17.3334V16C15.7083 15.1 16.4417 14.375 17.3333 14.375H20.3333C21.2333 14.375 21.9583 15.1084 21.9583 16V17.3334C21.9583 18.2334 21.2333 18.9584 20.3333 18.9584ZM17.3333 15.625C17.1333 15.625 16.9583 15.8 16.9583 16V17.3334C16.9583 17.5334 17.1333 17.7084 17.3333 17.7084H20.3333C20.5333 17.7084 20.7083 17.5334 20.7083 17.3334V16C20.7083 15.8 20.5333 15.625 20.3333 15.625H17.3333Z" fill="#1D1D1D"/>
</g>
<defs>
<filter id="filter0_d_715_225" x="-1" y="0" width="28" height="28" filterUnits="userSpaceOnUse" color-interpolation-filters="sRGB">
<feFlood flood-opacity="0" result="BackgroundImageFix"/>
<feColorMatrix in="SourceAlpha" type="matrix" values="0 0 0 0 0 0 0 0 0 0 0 0 0 0 0 0 0 0 127 0" result="hardAlpha"/>
<feOffset dy="4"/>
<feGaussianBlur stdDeviation="2"/>
<feComposite in2="hardAlpha" operator="out"/>
<feColorMatrix type="matrix" values="0 0 0 0 0 0 0 0 0 0 0 0 0 0 0 0 0 0 0.25 0"/>
<feBlend mode="normal" in2="BackgroundImageFix" result="effect1_dropShadow_715_225"/>
<feBlend mode="normal" in="SourceGraphic" in2="effect1_dropShadow_715_225" result="shape"/>
</filter>
</defs>
</svg>
