<svg width="32" height="32" viewBox="0 0 32 32" fill="none" xmlns="http://www.w3.org/2000/svg">
<path d="M21.5865 2.66669H10.4132C5.55984 2.66669 2.6665 5.56002 2.6665 10.4134V21.5734C2.6665 26.44 5.55984 29.3334 10.4132 29.3334H21.5732C26.4265 29.3334 29.3198 26.44 29.3198 21.5867V10.4134C29.3332 5.56002 26.4398 2.66669 21.5865 2.66669ZM15.9998 24.0134C11.7732 24.0134 8.33317 20.5734 8.33317 16.3467C8.33317 14.8267 8.77317 13.3467 9.6265 12.0934C9.93317 11.6267 10.5598 11.5067 11.0132 11.8134C11.4665 12.12 11.5998 12.7467 11.2798 13.2C10.6665 14.1334 10.3332 15.2267 10.3332 16.3467C10.3332 19.4667 12.8798 22.0134 15.9998 22.0134C19.1198 22.0134 21.6665 19.4667 21.6665 16.3467C21.6665 13.2267 19.1198 10.68 15.9998 10.68C15.7465 10.68 15.5065 10.7067 15.2532 10.7334L15.9998 11.28C16.4398 11.6 16.5465 12.2267 16.2132 12.68C16.0132 12.9467 15.7065 13.0934 15.3998 13.0934C15.1998 13.0934 14.9865 13.0267 14.8132 12.9067L12.2265 11C12.2265 11 12.2132 10.9867 12.1998 10.9734C12.1865 10.96 12.1732 10.96 12.1598 10.9467C12.1198 10.92 12.1065 10.8667 12.0665 10.8267C12.0265 10.7734 11.9865 10.7334 11.9465 10.6667C11.9198 10.6134 11.9065 10.5467 11.8798 10.4934C11.8665 10.4267 11.8398 10.3734 11.8398 10.3067C11.8398 10.24 11.8398 10.1867 11.8532 10.12C11.8532 10.0534 11.8532 10 11.8798 9.93335C11.8798 9.86669 11.9198 9.81335 11.9465 9.74669C11.9732 9.70669 11.9732 9.65335 12.0132 9.60002C12.0265 9.60002 12.0398 9.58669 12.0532 9.57335C12.0665 9.56002 12.0665 9.54669 12.0798 9.53335L14.3065 6.98669C14.6665 6.57335 15.3065 6.52002 15.7198 6.89335C16.1332 7.25335 16.1732 7.89335 15.8132 8.30669L15.4398 8.73335C15.6265 8.72002 15.8132 8.69335 16.0132 8.69335C20.2398 8.69335 23.6798 12.1334 23.6798 16.36C23.6798 20.5867 20.2265 24.0134 15.9998 24.0134Z" fill="#FFCE50"/>
</svg>
