<svg width="28" height="28" viewBox="0 0 28 28" fill="none" xmlns="http://www.w3.org/2000/svg">
<path d="M18.8883 2.33337H9.11158C4.86492 2.33337 2.33325 4.86504 2.33325 9.11171V18.8767C2.33325 23.135 4.86492 25.6667 9.11158 25.6667H18.8766C23.1233 25.6667 25.6549 23.135 25.6549 18.8884V9.11171C25.6666 4.86504 23.1349 2.33337 18.8883 2.33337ZM6.12492 13.8717C6.15992 11.8184 6.97658 9.88171 8.42325 8.43504C9.91658 6.94171 11.8999 6.12504 13.9999 6.12504C16.0999 6.12504 18.0833 6.94171 19.5649 8.43504C19.5999 8.47004 19.6349 8.51671 19.6699 8.56337V7.56004C19.6699 7.08171 20.0666 6.68504 20.5449 6.68504C21.0233 6.68504 21.4199 7.08171 21.4199 7.56004V10.6517C21.4199 11.13 21.0233 11.5267 20.5449 11.5267H17.4533C16.9749 11.5267 16.5783 11.13 16.5783 10.6517C16.5783 10.1734 16.9749 9.77671 17.4533 9.77671H18.4216C18.3866 9.74171 18.3633 9.70671 18.3283 9.67171C17.1733 8.51671 15.6333 7.87504 13.9999 7.87504C12.3666 7.87504 10.8266 8.51671 9.67158 9.67171C8.53992 10.8034 7.90992 12.3084 7.88659 13.9067C7.87492 14.3734 7.47825 14.7584 6.99992 14.7584H6.98825C6.50992 14.7584 6.12492 14.35 6.12492 13.8717ZM19.5649 19.565C18.0833 21.0467 16.0999 21.875 13.9999 21.875C11.8999 21.875 9.91659 21.0584 8.43492 19.565C8.39992 19.53 8.36492 19.4834 8.32992 19.4367V20.4284C8.32992 20.9067 7.93325 21.3034 7.45492 21.3034C6.97658 21.3034 6.57992 20.9067 6.57992 20.4284V17.3367C6.57992 16.8584 6.97658 16.4617 7.45492 16.4617H10.5466C11.0249 16.4617 11.4216 16.8584 11.4216 17.3367C11.4216 17.815 11.0249 18.2117 10.5466 18.2117H9.57825C9.61325 18.2467 9.63658 18.2817 9.67158 18.3167C10.8266 19.4717 12.3666 20.1134 13.9999 20.1134C15.6333 20.1134 17.1733 19.4717 18.3283 18.3167C19.4716 17.1734 20.1133 15.645 20.1133 14.0117C20.1133 13.5334 20.5099 13.1367 20.9883 13.1367C21.4666 13.1367 21.8633 13.5334 21.8633 14.0117C21.8633 16.1234 21.0466 18.095 19.5649 19.565Z" fill="black"/>
</svg>
