<svg width="20" height="20" viewBox="0 0 20 20" fill="none" xmlns="http://www.w3.org/2000/svg">
<path d="M7.49984 18.3333H12.4998C16.6665 18.3333 18.3332 16.6667 18.3332 12.5V7.49999C18.3332 3.33332 16.6665 1.66666 12.4998 1.66666H7.49984C3.33317 1.66666 1.6665 3.33332 1.6665 7.49999V12.5C1.6665 16.6667 3.33317 18.3333 7.49984 18.3333Z" stroke="#575757" stroke-width="1.2" stroke-linecap="round" stroke-linejoin="round"/>
<path d="M14.5832 9.99999C14.5832 12.5333 12.5332 14.5833 9.99984 14.5833C7.4665 14.5833 5.92482 12.0333 5.92482 12.0333M5.92482 12.0333H7.9915M5.92482 12.0333V14.325M5.4165 9.99999C5.4165 7.46666 7.44984 5.41666 9.99984 5.41666C13.0582 5.41666 14.5832 7.96665 14.5832 7.96665M14.5832 7.96665V5.67499M14.5832 7.96665H12.5498" stroke="#575757" stroke-width="1.2" stroke-linecap="round" stroke-linejoin="round"/>
</svg>
