<svg width="32" height="32" viewBox="0 0 32 32" fill="none" xmlns="http://www.w3.org/2000/svg">
<path d="M16 2.66663C8.64002 2.66663 2.66669 8.63996 2.66669 16C2.66669 23.36 8.64002 29.3333 16 29.3333C23.36 29.3333 29.3334 23.36 29.3334 16C29.3334 8.63996 23.36 2.66663 16 2.66663ZM22.92 21.2533C22.8667 21.3733 22.8 21.48 22.7067 21.5733L20.4534 23.8266C20.2534 24.0266 20 24.12 19.7467 24.12C19.4934 24.12 19.24 24.0266 19.04 23.8266C18.6534 23.44 18.6534 22.8 19.04 22.4133L19.5867 21.8666H12.1334C10.4 21.8666 9.00002 20.4533 9.00002 18.7333V16.3733C9.00002 15.8266 9.45335 15.3733 10 15.3733C10.5467 15.3733 11 15.8266 11 16.3733V18.7333C11 19.36 11.5067 19.8666 12.1334 19.8666H19.5867L19.04 19.32C18.6534 18.9333 18.6534 18.2933 19.04 17.9066C19.4267 17.52 20.0667 17.52 20.4534 17.9066L22.7067 20.16C22.8 20.2533 22.8667 20.36 22.92 20.48C23.0267 20.7333 23.0267 21.0133 22.92 21.2533ZM23 15.6266C23 16.1733 22.5467 16.6266 22 16.6266C21.4534 16.6266 21 16.1733 21 15.6266V13.2666C21 12.64 20.4934 12.1333 19.8667 12.1333H12.4134L12.96 12.6666C13.3467 13.0533 13.3467 13.6933 12.96 14.08C12.76 14.28 12.5067 14.3733 12.2534 14.3733C12 14.3733 11.7467 14.28 11.5467 14.08L9.29335 11.8266C9.20002 11.7333 9.13335 11.6266 9.08002 11.5066C8.97335 11.2666 8.97335 10.9866 9.08002 10.7466C9.13335 10.6266 9.20002 10.5066 9.29335 10.4133L11.5467 8.15996C11.9334 7.77329 12.5734 7.77329 12.96 8.15996C13.3467 8.54663 13.3467 9.18663 12.96 9.57329L12.4134 10.12H19.8667C21.6 10.12 23 11.5333 23 13.2533V15.6266Z" fill="#292D32"/>
</svg>
