<svg width="28" height="28" viewBox="0 0 28 28" fill="none" xmlns="http://www.w3.org/2000/svg">
<path d="M9.67163 7.33837C9.18163 7.33837 8.79663 6.94171 8.79663 6.46337V3.20837C8.79663 2.73004 9.18163 2.33337 9.67163 2.33337C10.1616 2.33337 10.5466 2.73004 10.5466 3.20837V6.45171C10.5466 6.94171 10.1616 7.33837 9.67163 7.33837Z" fill="black"/>
<path d="M18.3284 7.33837C17.8384 7.33837 17.4534 6.94171 17.4534 6.46337V3.20837C17.4534 2.71837 17.85 2.33337 18.3284 2.33337C18.8184 2.33337 19.2034 2.73004 19.2034 3.20837V6.45171C19.2034 6.94171 18.8184 7.33837 18.3284 7.33837Z" fill="black"/>
<path d="M22.8315 5.25004C22.0615 4.67837 20.9532 5.22671 20.9532 6.19504V6.31171C20.9532 7.67671 19.9732 8.93671 18.6082 9.07671C17.0332 9.24004 15.7032 8.00337 15.7032 6.46337V5.25004C15.7032 4.60837 15.1782 4.08337 14.5365 4.08337H13.4632C12.8215 4.08337 12.2965 4.60837 12.2965 5.25004V6.46337C12.2965 7.38504 11.8182 8.20171 11.0948 8.65671C10.9898 8.72671 10.8732 8.78504 10.7565 8.84337C10.6515 8.90171 10.5348 8.94837 10.4065 8.98337C10.2665 9.03004 10.1148 9.06504 9.9515 9.07671C9.76484 9.10004 9.57817 9.10004 9.3915 9.07671C9.22817 9.06504 9.0765 9.03004 8.9365 8.98337C8.81984 8.94837 8.70317 8.90171 8.5865 8.84337C8.46984 8.78504 8.35317 8.72671 8.24817 8.65671C7.51317 8.14337 7.0465 7.25671 7.0465 6.31171V6.19504C7.0465 5.29671 6.08984 4.76004 5.3315 5.14504C5.31984 5.15671 5.30817 5.15671 5.2965 5.16837C5.24984 5.19171 5.21484 5.21504 5.16817 5.25004C5.13317 5.28504 5.0865 5.30837 5.0515 5.34337C4.72484 5.60004 4.43317 5.89171 4.18817 6.20671C4.05984 6.34671 3.95484 6.49837 3.8615 6.65004C3.84984 6.66171 3.83817 6.67337 3.8265 6.69671C3.7215 6.84837 3.62817 7.02337 3.5465 7.18671C3.52317 7.21004 3.5115 7.22171 3.5115 7.24504C3.4415 7.38504 3.3715 7.52504 3.32484 7.67671C3.28984 7.73504 3.27817 7.78171 3.25484 7.84004C3.18484 8.01504 3.13817 8.19004 3.0915 8.36504C3.04484 8.52837 3.00984 8.70337 2.9865 8.87837C2.96317 9.00671 2.9515 9.13504 2.93984 9.27504C2.92817 9.43837 2.9165 9.60171 2.9165 9.76504V19.985C2.9165 23.1234 5.45984 25.6667 8.59817 25.6667H19.4015C22.5398 25.6667 25.0832 23.1234 25.0832 19.985V9.76504C25.0832 7.91004 24.1965 6.28837 22.8315 5.25004ZM13.9998 20.3234H8.5865C8.10817 20.3234 7.7115 19.9267 7.7115 19.4484C7.7115 18.9584 8.10817 18.5617 8.5865 18.5617H13.9998C14.4898 18.5617 14.8748 18.9584 14.8748 19.4484C14.8748 19.9267 14.4898 20.3234 13.9998 20.3234ZM17.2432 15.995H8.5865C8.10817 15.995 7.7115 15.5984 7.7115 15.12C7.7115 14.63 8.10817 14.2334 8.5865 14.2334H17.2432C17.7332 14.2334 18.1298 14.63 18.1298 15.12C18.1298 15.5984 17.7332 15.995 17.2432 15.995Z" fill="black"/>
</svg>
