<svg width="32" height="32" viewBox="0 0 32 32" fill="none" xmlns="http://www.w3.org/2000/svg">
<path d="M16.9036 26.6094C17.2699 26.6946 17.3035 27.1744 16.9467 27.2933V27.2933L14.84 27.9867C9.54669 29.6933 6.76003 28.2667 5.04003 22.9733L3.33336 17.7067C1.62669 12.4134 3.04003 9.61335 8.33336 7.90668L9.37069 7.56315C9.77356 7.42974 10.1612 7.83212 10.0388 8.23846C9.92679 8.61042 9.82169 9.0065 9.72003 9.42668L8.41336 15.0134C6.94669 21.2934 9.09336 24.76 15.3734 26.2534L16.9036 26.6094Z" fill="#292D32"/>
<path d="M22.8933 4.28005L20.6667 3.76005C16.2133 2.70672 13.56 3.57338 12 6.80005C11.6 7.61338 11.28 8.60005 11.0133 9.73339L9.70668 15.3201C8.40002 20.8934 10.12 23.6401 15.68 24.9601L17.92 25.4934C18.6933 25.6801 19.4133 25.8001 20.08 25.8534C24.24 26.2534 26.4533 24.3067 27.5733 19.4934L28.88 13.9201C30.1867 8.34672 28.48 5.58672 22.8933 4.28005ZM20.3867 17.7734C20.2667 18.2267 19.8667 18.5201 19.4134 18.5201C19.3334 18.5201 19.2533 18.5067 19.16 18.4934L15.28 17.5067C14.7467 17.3734 14.4267 16.8267 14.56 16.2934C14.6933 15.7601 15.24 15.4401 15.7733 15.5734L19.6533 16.5601C20.2 16.6934 20.52 17.2401 20.3867 17.7734ZM24.2933 13.2667C24.1733 13.7201 23.7733 14.0134 23.32 14.0134C23.24 14.0134 23.16 14.0001 23.0667 13.9867L16.6 12.3467C16.0667 12.2134 15.7467 11.6667 15.88 11.1334C16.0133 10.6001 16.56 10.2801 17.0933 10.4134L23.56 12.0534C24.1067 12.1734 24.4267 12.7201 24.2933 13.2667Z" fill="#292D32"/>
</svg>
